# xmcd
#
# Track frame offsets:
# 150
# 13586
# 32634
# 44506
# 58129
# 70498
# 83638
# 98696
# 109665
# 135417
# 147761
# 159550
# 174307
# 189747
# 204351
# 219302
# 236088
# 252258
#
# Disc length: 3648 seconds
#
#
# Revision: 1
# Processed by: cddbd v1.5.2PL0 Copyright (c) Steve Scherf et al.
# Submitted via: FreeRIP 2.96 
#
DISCID=f60e3e12
DTITLE=César Menotti and Fabiano - Palavras de Amor
DYEAR=2006
DGENRE=Sertanejo
TTITLE0=Como um Anjo
TTITLE1=Tentei te Esquecer...
TTITLE2=Fica Comigo
TTITLE3=Sem Medo de ser Feliz
TTITLE4=Mensagem Pra Ela
TTITLE5=Esperando na Janela
TTITLE6=Leilão
TTITLE7=Aqui Não
TTITLE8=Lugar Melhor Que BH
TTITLE9=Bão Tambem
TTITLE10=Sempre seu Homem
TTITLE11=Paixão Mineira
TTITLE12=Amargurado
TTITLE13=Na Hora do Adeus
TTITLE14=Caso Marcado
TTITLE15=New York
TTITLE16=Me Apaixonei
TTITLE17=Cana Verde
EXTD=
EXTT0=
EXTT1=
EXTT2=
EXTT3=
EXTT4=
EXTT5=
EXTT6=
EXTT7=
EXTT8=
EXTT9=
EXTT10=
EXTT11=
EXTT12=
EXTT13=
EXTT14=
EXTT15=
EXTT16=
EXTT17=
PLAYORDER=
